<?xml version="1.0" encoding="UTF-8"?>
<svg xmlns="http://www.w3.org/2000/svg" viewBox="0 0 800 440" width="800" height="440" role="img" aria-labelledby="title desc">
  <title id="title">Offline local tool-calling eval</title>
  <desc id="desc">Offline local tool-calling eval — skillissue chart from AutoHub git harvest</desc>
  <defs>
    <style type="text/css"><![CDATA[
      text { font-family: ui-sans-serif, system-ui, -apple-system, 'Segoe UI', Roboto, Helvetica, Arial, sans-serif; }
    ]]></style>
  </defs>
  <rect width="800" height="440" fill="#0f1419" rx="8"/>
  <text x="32" y="28" fill="#e8eaed" font-size="18" font-weight="600">Local tool-calling: correct tool vs loop completion</text>
  <text x="32" y="50" fill="#8b949e" font-size="12">13-prompt eval · curated ~10-tool catalog · M5 Max · 2026-06-16 spike</text>
  <line x1="72" y1="352.0" x2="760" y2="352.0" stroke="#1c2430" stroke-width="1"/>
  <text x="62" y="356.0" fill="#8b949e" font-size="11" text-anchor="end">0%</text>
  <line x1="72" y1="288.0" x2="760" y2="288.0" stroke="#1c2430" stroke-width="1"/>
  <text x="62" y="292.0" fill="#8b949e" font-size="11" text-anchor="end">25%</text>
  <line x1="72" y1="224.0" x2="760" y2="224.0" stroke="#1c2430" stroke-width="1"/>
  <text x="62" y="228.0" fill="#8b949e" font-size="11" text-anchor="end">50%</text>
  <line x1="72" y1="160.0" x2="760" y2="160.0" stroke="#1c2430" stroke-width="1"/>
  <text x="62" y="164.0" fill="#8b949e" font-size="11" text-anchor="end">75%</text>
  <line x1="72" y1="96.0" x2="760" y2="96.0" stroke="#1c2430" stroke-width="1"/>
  <text x="62" y="100.0" fill="#8b949e" font-size="11" text-anchor="end">100%</text>
  <line x1="72" y1="352" x2="760" y2="352" stroke="#2a3441" stroke-width="1.5"/>
  <rect x="147" y="124.2" width="36" height="227.8" fill="#5ad6c0" rx="3"/>
  <text x="165" y="116.2" fill="#5ad6c0" font-size="13" font-weight="600" text-anchor="middle">89%</text>
  <rect x="191" y="96.0" width="36" height="256.0" fill="#7aa2ff" rx="3"/>
  <text x="209" y="88.0" fill="#7aa2ff" font-size="13" font-weight="600" text-anchor="middle">100%</text>
  <text x="187" y="376" fill="#e8eaed" font-size="12" text-anchor="middle">hermes3:8b</text>
  <rect x="169" y="386" width="36" height="18" fill="#5ad6c0" fill-opacity="0.2" stroke="#5ad6c0" rx="4"/>
  <text x="187" y="399" fill="#5ad6c0" font-size="11" font-weight="700" text-anchor="middle">GO</text>
  <rect x="376" y="96.0" width="36" height="256.0" fill="#5ad6c0" rx="3"/>
  <text x="394" y="88.0" fill="#5ad6c0" font-size="13" font-weight="600" text-anchor="middle">100%</text>
  <rect x="420" y="295.7" width="36" height="56.3" fill="#7aa2ff" rx="3"/>
  <text x="438" y="287.7" fill="#7aa2ff" font-size="13" font-weight="600" text-anchor="middle">22%</text>
  <text x="416" y="376" fill="#e8eaed" font-size="12" text-anchor="middle">qwen3.6-ablit.</text>
  <rect x="398" y="386" width="36" height="18" fill="#f07178" fill-opacity="0.2" stroke="#f07178" rx="4"/>
  <text x="416" y="399" fill="#f07178" font-size="11" font-weight="700" text-anchor="middle">NO</text>
  <rect x="605" y="152.3" width="36" height="199.7" fill="#5ad6c0" rx="3"/>
  <text x="623" y="144.3" fill="#5ad6c0" font-size="13" font-weight="600" text-anchor="middle">78%</text>
  <text x="667" y="336.0" fill="#8b949e" font-size="12" text-anchor="middle">n/a</text>
  <text x="645" y="376" fill="#e8eaed" font-size="12" text-anchor="middle">qwen3-coder:30b</text>
  <rect x="627" y="386" width="36" height="18" fill="#f07178" fill-opacity="0.2" stroke="#f07178" rx="4"/>
  <text x="645" y="399" fill="#f07178" font-size="11" font-weight="700" text-anchor="middle">NO</text>
  <line x1="72" y1="388" x2="94" y2="388" stroke="#5ad6c0" stroke-width="2.5"/>
  <text x="100" y="392" fill="#e8eaed" font-size="11">correctTool</text>
  <line x1="202" y1="388" x2="224" y2="388" stroke="#7aa2ff" stroke-width="2.5"/>
  <text x="230" y="392" fill="#e8eaed" font-size="11">loopCompletion</text>
  <text x="760" y="110" fill="#8b949e" font-size="10" text-anchor="end">qwen3.6: 100% tool pick, 22% loop close → NO</text>
  <text x="32" y="424" fill="#8b949e" font-size="10">Source: offlineBenchmarks.spike_2026_06_16 · AutoMem + AutoHub local FC notes</text>
  <text x="768" y="424" fill="#8b949e" font-size="10" text-anchor="end">skillissue · 2026-07-20</text>
</svg>
