<?xml version="1.0" encoding="UTF-8"?>
<svg xmlns="http://www.w3.org/2000/svg" viewBox="0 0 800 400" width="800" height="400" role="img" aria-labelledby="title desc">
  <title id="title">Skills non-monotonic returns (conceptual)</title>
  <desc id="desc">Skills non-monotonic returns (conceptual) — skillissue chart from AutoHub git harvest</desc>
  <defs>
    <style type="text/css"><![CDATA[
      text { font-family: ui-sans-serif, system-ui, -apple-system, 'Segoe UI', Roboto, Helvetica, Arial, sans-serif; }
    ]]></style>
  </defs>
  <rect width="800" height="400" fill="#0f1419" rx="8"/>
  <text x="32" y="28" fill="#e8eaed" font-size="18" font-weight="600">More skills is not more benefit</text>
  <text x="32" y="50" fill="#8b949e" font-size="12">Conceptual curve · SkillsBench-inspired · NOT AutoHub measured data</text>
  <line x1="64" y1="320.0" x2="752" y2="320.0" stroke="#1c2430" stroke-width="1"/>
  <line x1="64" y1="262.5" x2="752" y2="262.5" stroke="#1c2430" stroke-width="1"/>
  <line x1="64" y1="205.0" x2="752" y2="205.0" stroke="#1c2430" stroke-width="1"/>
  <line x1="64" y1="147.5" x2="752" y2="147.5" stroke="#1c2430" stroke-width="1"/>
  <line x1="64" y1="90.0" x2="752" y2="90.0" stroke="#1c2430" stroke-width="1"/>
  <line x1="64" y1="90" x2="64" y2="320" stroke="#2a3441" stroke-width="1.5"/>
  <line x1="64" y1="320" x2="752" y2="320" stroke="#2a3441" stroke-width="1.5"/>
  <text x="64.0" y="340" fill="#8b949e" font-size="11" text-anchor="middle">0</text>
  <text x="201.6" y="340" fill="#8b949e" font-size="11" text-anchor="middle">2</text>
  <text x="339.2" y="340" fill="#8b949e" font-size="11" text-anchor="middle">4</text>
  <text x="476.8" y="340" fill="#8b949e" font-size="11" text-anchor="middle">6</text>
  <text x="614.4" y="340" fill="#8b949e" font-size="11" text-anchor="middle">8</text>
  <text x="752.0" y="340" fill="#8b949e" font-size="11" text-anchor="middle">10</text>
  <text x="408" y="362" fill="#8b949e" font-size="12" text-anchor="middle">skill count (conceptual)</text>
  <text x="18" y="205" fill="#8b949e" font-size="11" transform="rotate(-90 18 205)" text-anchor="middle">benefit</text>
  <rect x="208.0" y="90" width="56" height="230" fill="#5ad6c0" fill-opacity="0.08"/>
  <path d="M64.0,292.4 L72.6,276.5 L81.2,263.8 L89.8,252.0 L98.4,240.9 L107.0,230.1 L115.6,219.7 L124.2,209.5 L132.8,199.5 L141.4,189.7 L150.0,180.1 L158.6,170.6 L167.2,161.3 L175.8,152.1 L184.4,142.9 L193.0,133.9 L201.6,125.0 L210.2,116.1 L218.8,107.3 L227.4,98.6 L236.0,90.0 L244.6,95.1 L253.2,100.1 L261.8,105.0 L270.4,109.8 L279.0,114.5 L287.6,119.0 L296.2,123.5 L304.8,127.9 L313.4,132.2 L322.0,136.3 L330.6,140.4 L339.2,144.4 L347.8,148.3 L356.4,152.1 L365.0,155.9 L373.6,159.5 L382.2,163.1 L390.8,166.6 L399.4,170.0 L408.0,173.3 L416.6,176.6 L425.2,179.8 L433.8,182.9 L442.4,186.0 L451.0,188.9 L459.6,191.9 L468.2,194.7 L476.8,197.5 L485.4,200.2 L494.0,202.9 L502.6,205.5 L511.2,208.0 L519.8,210.5 L528.4,213.0 L537.0,215.4 L545.6,217.7 L554.2,220.0 L562.8,222.2 L571.4,224.4 L580.0,226.5 L588.6,228.6 L597.2,230.6 L605.8,232.6 L614.4,234.5 L623.0,236.4 L631.6,238.3 L640.2,240.1 L648.8,241.9 L657.4,243.6 L666.0,245.3 L674.6,247.0 L683.2,248.6 L691.8,250.2 L700.4,251.8 L709.0,253.3 L717.6,254.8 L726.2,256.2 L734.8,257.6 L743.4,259.0 L752.0,260.4" fill="none" stroke="#5ad6c0" stroke-width="3" stroke-linejoin="round" stroke-linecap="round"/>
  <path d="M64.0,292.4 L72.6,276.5 L81.2,263.8 L89.8,252.0 L98.4,240.9 L107.0,230.1 L115.6,219.7 L124.2,209.5 L132.8,199.5 L141.4,189.7 L150.0,180.1 L158.6,170.6 L167.2,161.3 L175.8,152.1 L184.4,142.9 L193.0,133.9 L201.6,125.0 L210.2,116.1 L218.8,107.3 L227.4,98.6 L236.0,90.0 L244.6,95.1 L253.2,100.1 L261.8,105.0 L270.4,109.8 L279.0,114.5 L287.6,119.0 L296.2,123.5 L304.8,127.9 L313.4,132.2 L322.0,136.3 L330.6,140.4 L339.2,144.4 L347.8,148.3 L356.4,152.1 L365.0,155.9 L373.6,159.5 L382.2,163.1 L390.8,166.6 L399.4,170.0 L408.0,173.3 L416.6,176.6 L425.2,179.8 L433.8,182.9 L442.4,186.0 L451.0,188.9 L459.6,191.9 L468.2,194.7 L476.8,197.5 L485.4,200.2 L494.0,202.9 L502.6,205.5 L511.2,208.0 L519.8,210.5 L528.4,213.0 L537.0,215.4 L545.6,217.7 L554.2,220.0 L562.8,222.2 L571.4,224.4 L580.0,226.5 L588.6,228.6 L597.2,230.6 L605.8,232.6 L614.4,234.5 L623.0,236.4 L631.6,238.3 L640.2,240.1 L648.8,241.9 L657.4,243.6 L666.0,245.3 L674.6,247.0 L683.2,248.6 L691.8,250.2 L700.4,251.8 L709.0,253.3 L717.6,254.8 L726.2,256.2 L734.8,257.6 L743.4,259.0 L752.0,260.4 L752.0,320 L64.0,320 Z" fill="#5ad6c0" fill-opacity="0.1"/>
  <circle cx="236.0" cy="90.0" r="5" fill="#5ad6c0"/>
  <text x="236.0" y="76.0" fill="#5ad6c0" font-size="12" font-weight="600" text-anchor="middle">peak ~2–3</text>
  <text x="580.0" y="193.5" fill="#f0b429" font-size="12" text-anchor="middle">diminishing / negative returns</text>
  <rect x="32" y="348" width="736" height="24" fill="#f0b429" fill-opacity="0.12" rx="4"/>
  <text x="400" y="364" fill="#f0b429" font-size="11" text-anchor="middle">CONCEPTUAL — SkillsBench-inspired shape · not measured from our registry</text>
  <text x="32" y="384" fill="#8b949e" font-size="10">Cite: SkillsBench arXiv:2602.12670 · agent skills survey arXiv:2602.12430 · not autohub data</text>
  <text x="768" y="384" fill="#8b949e" font-size="10" text-anchor="end">skillissue · 2026-07-20</text>
</svg>
