<?xml version="1.0" encoding="UTF-8"?>
<svg xmlns="http://www.w3.org/2000/svg" viewBox="0 0 860 440" width="860" height="440" role="img" aria-labelledby="title desc">
  <title id="title">Registered MCP tools vs filter surface over time</title>
  <desc id="desc">Registered MCP tools vs filter surface over time — skillissue chart from AutoHub git harvest</desc>
  <defs>
    <style type="text/css"><![CDATA[
      text { font-family: ui-sans-serif, system-ui, -apple-system, 'Segoe UI', Roboto, Helvetica, Arial, sans-serif; }
    ]]></style>
  </defs>
  <rect width="860" height="440" fill="#0f1419" rx="8"/>
  <text x="32" y="28" fill="#e8eaed" font-size="18" font-weight="600">Registered tools grew faster than the filter floor</text>
  <text x="32" y="50" fill="#8b949e" font-size="12">AutoHub config harvest · mcpTools (when present), groups, contextRules</text>
  <line x1="64" y1="368.0" x2="820" y2="368.0" stroke="#1c2430" stroke-width="1"/>
  <text x="54" y="372.0" fill="#8b949e" font-size="11" text-anchor="end">0</text>
  <line x1="64" y1="304.0" x2="820" y2="304.0" stroke="#1c2430" stroke-width="1"/>
  <text x="54" y="308.0" fill="#8b949e" font-size="11" text-anchor="end">200</text>
  <line x1="64" y1="240.0" x2="820" y2="240.0" stroke="#1c2430" stroke-width="1"/>
  <text x="54" y="244.0" fill="#8b949e" font-size="11" text-anchor="end">400</text>
  <line x1="64" y1="176.0" x2="820" y2="176.0" stroke="#1c2430" stroke-width="1"/>
  <text x="54" y="180.0" fill="#8b949e" font-size="11" text-anchor="end">600</text>
  <line x1="64" y1="112.0" x2="820" y2="112.0" stroke="#1c2430" stroke-width="1"/>
  <text x="54" y="116.0" fill="#8b949e" font-size="11" text-anchor="end">800</text>
  <line x1="64" y1="48.0" x2="820" y2="48.0" stroke="#1c2430" stroke-width="1"/>
  <text x="54" y="52.0" fill="#8b949e" font-size="11" text-anchor="end">1000</text>
  <text x="828" y="372.0" fill="#8b949e" font-size="10">0</text>
  <text x="828" y="289.7" fill="#8b949e" font-size="10">20</text>
  <text x="828" y="207.4" fill="#8b949e" font-size="10">40</text>
  <text x="828" y="125.1" fill="#8b949e" font-size="10">60</text>
  <text x="828" y="42.9" fill="#8b949e" font-size="10">80</text>
  <line x1="64" y1="80" x2="64" y2="368" stroke="#2a3441" stroke-width="1.5"/>
  <line x1="64" y1="368" x2="820" y2="368" stroke="#2a3441" stroke-width="1.5"/>
  <line x1="820" y1="80" x2="820" y2="368" stroke="#2a3441" stroke-width="1" stroke-dasharray="3 3"/>
  <line x1="64.0" y1="368" x2="64.0" y2="373" stroke="#8b949e" stroke-width="1"/>
  <text x="64.0" y="388" fill="#8b949e" font-size="10" text-anchor="middle">Sep '25</text>
  <line x1="179.4" y1="368" x2="179.4" y2="373" stroke="#8b949e" stroke-width="1"/>
  <text x="179.4" y="388" fill="#8b949e" font-size="10" text-anchor="middle">Nov '25</text>
  <line x1="329.1" y1="368" x2="329.1" y2="373" stroke="#8b949e" stroke-width="1"/>
  <text x="329.1" y="388" fill="#8b949e" font-size="10" text-anchor="middle">Jan '26</text>
  <line x1="439.5" y1="368" x2="439.5" y2="373" stroke="#8b949e" stroke-width="1"/>
  <text x="439.5" y="388" fill="#8b949e" font-size="10" text-anchor="middle">Feb '26</text>
  <line x1="550.0" y1="368" x2="550.0" y2="373" stroke="#8b949e" stroke-width="1"/>
  <text x="550.0" y="388" fill="#8b949e" font-size="10" text-anchor="middle">Apr '26</text>
  <line x1="658.0" y1="368" x2="658.0" y2="373" stroke="#8b949e" stroke-width="1"/>
  <text x="658.0" y="388" fill="#8b949e" font-size="10" text-anchor="middle">May '26</text>
  <line x1="761.1" y1="368" x2="761.1" y2="373" stroke="#8b949e" stroke-width="1"/>
  <text x="761.1" y="388" fill="#8b949e" font-size="10" text-anchor="middle">Jun '26</text>
  <line x1="820.0" y1="368" x2="820.0" y2="373" stroke="#8b949e" stroke-width="1"/>
  <text x="820.0" y="388" fill="#8b949e" font-size="10" text-anchor="middle">Jul '26</text>
  <path d="M287.4,209.9 L329.1,190.7 L363.5,149.4 L405.2,129.3 L439.5,118.7 L473.9,191.4 L508.3,191.0 L550.0,218.6 L584.4,213.1 L623.6,199.0 L658.0,142.1 L699.7,137.9 L734.1,137.3 L761.1,136.6 L773.4,136.6 L795.5,107.8 L820.0,107.8 L820.0,368 L287.4,368 Z" fill="#5ad6c0" fill-opacity="0.12"/>
  <path d="M287.4,209.9 L329.1,190.7 L363.5,149.4 L405.2,129.3 L439.5,118.7 L473.9,191.4 L508.3,191.0 L550.0,218.6 L584.4,213.1 L623.6,199.0 L658.0,142.1 L699.7,137.9 L734.1,137.3 L761.1,136.6 L773.4,136.6 L795.5,107.8 L820.0,107.8" fill="none" stroke="#5ad6c0" stroke-width="2.5" stroke-linejoin="round" stroke-linecap="round"/>
  <circle cx="287.4" cy="209.9" r="3.2" fill="#0f1419" stroke="#5ad6c0" stroke-width="1.5"/>
  <circle cx="329.1" cy="190.7" r="3.2" fill="#0f1419" stroke="#5ad6c0" stroke-width="1.5"/>
  <circle cx="363.5" cy="149.4" r="3.2" fill="#0f1419" stroke="#5ad6c0" stroke-width="1.5"/>
  <circle cx="405.2" cy="129.3" r="3.2" fill="#0f1419" stroke="#5ad6c0" stroke-width="1.5"/>
  <circle cx="439.5" cy="118.7" r="3.2" fill="#0f1419" stroke="#5ad6c0" stroke-width="1.5"/>
  <circle cx="473.9" cy="191.4" r="3.2" fill="#0f1419" stroke="#5ad6c0" stroke-width="1.5"/>
  <circle cx="508.3" cy="191.0" r="3.2" fill="#0f1419" stroke="#5ad6c0" stroke-width="1.5"/>
  <circle cx="550.0" cy="218.6" r="3.2" fill="#0f1419" stroke="#5ad6c0" stroke-width="1.5"/>
  <circle cx="584.4" cy="213.1" r="3.2" fill="#0f1419" stroke="#5ad6c0" stroke-width="1.5"/>
  <circle cx="623.6" cy="199.0" r="3.2" fill="#0f1419" stroke="#5ad6c0" stroke-width="1.5"/>
  <circle cx="658.0" cy="142.1" r="3.2" fill="#0f1419" stroke="#5ad6c0" stroke-width="1.5"/>
  <circle cx="699.7" cy="137.9" r="3.2" fill="#0f1419" stroke="#5ad6c0" stroke-width="1.5"/>
  <circle cx="734.1" cy="137.3" r="3.2" fill="#0f1419" stroke="#5ad6c0" stroke-width="1.5"/>
  <circle cx="761.1" cy="136.6" r="3.2" fill="#0f1419" stroke="#5ad6c0" stroke-width="1.5"/>
  <circle cx="773.4" cy="136.6" r="3.2" fill="#0f1419" stroke="#5ad6c0" stroke-width="1.5"/>
  <circle cx="795.5" cy="107.8" r="3.2" fill="#0f1419" stroke="#5ad6c0" stroke-width="1.5"/>
  <circle cx="820.0" cy="107.8" r="3.2" fill="#0f1419" stroke="#5ad6c0" stroke-width="1.5"/>
  <text x="439.5" y="106.7" fill="#5ad6c0" font-size="10" text-anchor="middle">779</text>
  <text x="481.9" y="195.4" fill="#f0b429" font-size="10">cleanup → 552</text>
  <text x="820.0" y="95.8" fill="#5ad6c0" font-size="11" font-weight="600" text-anchor="end">813</text>
  <path d="M64.0,318.6 L103.3,314.5 L137.6,293.9 L179.4,285.7 L213.7,281.6 L287.4,277.5 L329.1,273.4 L363.5,273.4 L405.2,265.1 L439.5,261.0 L473.9,232.2 L508.3,232.2 L550.0,219.9 L584.4,203.4 L623.6,178.7 L658.0,158.2 L699.7,154.1 L734.1,154.1 L761.1,133.5 L773.4,129.4 L795.5,129.4 L820.0,121.1" fill="none" stroke="#7aa2ff" stroke-width="2" stroke-linejoin="round" stroke-linecap="round"/>
  <path d="M64.0,326.9 L103.3,318.6 L137.6,314.5 L179.4,306.3 L213.7,298.1 L287.4,273.4 L329.1,273.4 L363.5,273.4 L405.2,273.4 L439.5,269.3 L473.9,244.6 L508.3,240.5 L550.0,236.3 L584.4,228.1 L623.6,207.5 L658.0,178.7 L699.7,170.5 L734.1,154.1 L761.1,133.5 L773.4,129.4 L795.5,129.4 L820.0,121.1" fill="none" stroke="#f0b429" stroke-width="2" stroke-linejoin="round" stroke-linecap="round" stroke-dasharray="5 3"/>
  <text x="18" y="224" fill="#8b949e" font-size="10" transform="rotate(-90 18 224)" text-anchor="middle">mcpTools (left)</text>
  <text x="846" y="224" fill="#8b949e" font-size="10" transform="rotate(90 846 224)" text-anchor="middle">groups / rules (right)</text>
  <line x1="64" y1="392" x2="86" y2="392" stroke="#5ad6c0" stroke-width="2.5"/>
  <text x="92" y="396" fill="#e8eaed" font-size="11">mcpTools</text>
  <line x1="174" y1="392" x2="196" y2="392" stroke="#7aa2ff" stroke-width="2.5"/>
  <text x="202" y="396" fill="#e8eaed" font-size="11">groups</text>
  <line x1="264" y1="392" x2="286" y2="392" stroke="#f0b429" stroke-width="2.5" stroke-dasharray="5 3"/>
  <text x="292" y="396" fill="#e8eaed" font-size="11">contextRules</text>
  <text x="32" y="424" fill="#8b949e" font-size="10">Source: git-sampled config/mcp-tools.json + tool-filters.json</text>
  <text x="828" y="424" fill="#8b949e" font-size="10" text-anchor="end">skillissue · 2026-07-20</text>
</svg>
