<?xml version="1.0" encoding="UTF-8"?>
<svg xmlns="http://www.w3.org/2000/svg" viewBox="0 0 860 420" width="860" height="420" role="img" aria-labelledby="title desc">
  <title id="title">Tool-filter surface growth</title>
  <desc id="desc">Tool-filter surface growth — skillissue chart from AutoHub git harvest</desc>
  <defs>
    <style type="text/css"><![CDATA[
      text { font-family: ui-sans-serif, system-ui, -apple-system, 'Segoe UI', Roboto, Helvetica, Arial, sans-serif; }
    ]]></style>
  </defs>
  <rect width="860" height="420" fill="#0f1419" rx="8"/>
  <text x="32" y="28" fill="#e8eaed" font-size="18" font-weight="600">Filter surface: groups, profiles, context rules</text>
  <text x="32" y="50" fill="#8b949e" font-size="12">tool-filters.json over 10 months of AutoHub evolution</text>
  <line x1="56" y1="348.0" x2="828" y2="348.0" stroke="#1c2430" stroke-width="1"/>
  <text x="46" y="352.0" fill="#8b949e" font-size="11" text-anchor="end">0</text>
  <line x1="56" y1="271.4" x2="828" y2="271.4" stroke="#1c2430" stroke-width="1"/>
  <text x="46" y="275.4" fill="#8b949e" font-size="11" text-anchor="end">20</text>
  <line x1="56" y1="194.9" x2="828" y2="194.9" stroke="#1c2430" stroke-width="1"/>
  <text x="46" y="198.9" fill="#8b949e" font-size="11" text-anchor="end">40</text>
  <line x1="56" y1="118.3" x2="828" y2="118.3" stroke="#1c2430" stroke-width="1"/>
  <text x="46" y="122.3" fill="#8b949e" font-size="11" text-anchor="end">60</text>
  <line x1="56" y1="41.7" x2="828" y2="41.7" stroke="#1c2430" stroke-width="1"/>
  <text x="46" y="45.7" fill="#8b949e" font-size="11" text-anchor="end">80</text>
  <line x1="56" y1="80" x2="56" y2="348" stroke="#2a3441" stroke-width="1.5"/>
  <line x1="56" y1="348" x2="828" y2="348" stroke="#2a3441" stroke-width="1.5"/>
  <text x="56.0" y="368" fill="#8b949e" font-size="10" text-anchor="middle">Sep '25</text>
  <text x="173.8" y="368" fill="#8b949e" font-size="10" text-anchor="middle">Nov '25</text>
  <text x="326.7" y="368" fill="#8b949e" font-size="10" text-anchor="middle">Jan '26</text>
  <text x="439.5" y="368" fill="#8b949e" font-size="10" text-anchor="middle">Feb '26</text>
  <text x="552.3" y="368" fill="#8b949e" font-size="10" text-anchor="middle">Apr '26</text>
  <text x="662.6" y="368" fill="#8b949e" font-size="10" text-anchor="middle">May '26</text>
  <text x="767.8" y="368" fill="#8b949e" font-size="10" text-anchor="middle">Jun '26</text>
  <text x="828.0" y="368" fill="#8b949e" font-size="10" text-anchor="middle">Jul '26</text>
  <path d="M56.0,302.1 L96.1,298.2 L131.2,279.1 L173.8,271.4 L208.9,267.6 L284.1,263.8 L326.7,259.9 L361.8,259.9 L404.4,252.3 L439.5,248.5 L474.6,221.7 L509.7,221.7 L552.3,210.2 L587.4,194.9 L627.5,171.9 L662.6,152.7 L705.2,148.9 L740.3,148.9 L767.8,129.8 L780.4,125.9 L802.9,125.9 L828.0,118.3" fill="none" stroke="#5ad6c0" stroke-width="2.5" stroke-linejoin="round" stroke-linecap="round"/>
  <circle cx="828.0" cy="118.3" r="3.5" fill="#5ad6c0"/>
  <text x="820.0" y="110.3" fill="#5ad6c0" font-size="11" font-weight="600" text-anchor="end">60</text>
  <path d="M56.0,309.7 L96.1,302.1 L131.2,298.2 L173.8,290.6 L208.9,282.9 L284.1,259.9 L326.7,259.9 L361.8,259.9 L404.4,259.9 L439.5,256.1 L474.6,233.1 L509.7,229.3 L552.3,225.5 L587.4,217.8 L627.5,198.7 L662.6,171.9 L705.2,164.2 L740.3,148.9 L767.8,129.8 L780.4,125.9 L802.9,125.9 L828.0,118.3" fill="none" stroke="#7aa2ff" stroke-width="2" stroke-linejoin="round" stroke-linecap="round"/>
  <circle cx="828.0" cy="118.3" r="3.5" fill="#7aa2ff"/>
  <text x="820.0" y="110.3" fill="#7aa2ff" font-size="11" font-weight="600" text-anchor="end">60</text>
  <path d="M56.0,332.7 L96.1,332.7 L131.2,336.5 L173.8,336.5 L208.9,336.5 L284.1,328.9 L326.7,328.9 L361.8,325.0 L404.4,309.7 L439.5,309.7 L474.6,309.7 L509.7,309.7 L552.3,309.7 L587.4,305.9 L627.5,298.2 L662.6,298.2 L705.2,294.4 L740.3,294.4 L767.8,290.6 L780.4,290.6 L802.9,290.6 L828.0,286.7" fill="none" stroke="#f0b429" stroke-width="2" stroke-linejoin="round" stroke-linecap="round"/>
  <circle cx="828.0" cy="286.7" r="3.5" fill="#f0b429"/>
  <text x="820.0" y="278.7" fill="#f0b429" font-size="11" font-weight="600" text-anchor="end">16</text>
  <text x="56.0" y="292.1" fill="#8b949e" font-size="9" text-anchor="middle">12 groups</text>
  <line x1="56" y1="372" x2="78" y2="372" stroke="#5ad6c0" stroke-width="2.5"/>
  <text x="84" y="376" fill="#e8eaed" font-size="11">groups</text>
  <line x1="186" y1="372" x2="208" y2="372" stroke="#7aa2ff" stroke-width="2.5"/>
  <text x="214" y="376" fill="#e8eaed" font-size="11">contextRules</text>
  <line x1="316" y1="372" x2="338" y2="372" stroke="#f0b429" stroke-width="2.5"/>
  <text x="344" y="376" fill="#e8eaed" font-size="11">profiles</text>
  <text x="32" y="404" fill="#8b949e" font-size="10">Source: git-sampled config/tool-filters.json · verygoodplugins/autohub</text>
  <text x="828" y="404" fill="#8b949e" font-size="10" text-anchor="end">skillissue · 2026-07-20</text>
</svg>
